<svg version="1.2" xmlns="http://www.w3.org/2000/svg" viewBox="0 0 168 79" width="168" height="79">
	<title>scammer_rate_circle</title>
	<defs>
		<clipPath clipPathUnits="userSpaceOnUse" id="cp1">
			<path d="m0 78.5c0-20.82 8.8-40.79 24.46-55.51 15.66-14.72 36.89-22.99 59.04-22.99 22.15 0 43.38 8.27 59.04 22.99 15.66 14.72 24.46 34.69 24.46 55.51h-36.73c0-11.66-4.93-22.85-13.7-31.09-8.77-8.25-20.67-12.88-33.07-12.88-12.4 0-24.3 4.63-33.07 12.88-8.77 8.24-13.7 19.43-13.7 31.09z"/>
		</clipPath>
		<clipPath clipPathUnits="userSpaceOnUse" id="cp2">
			<path d="m160.93 49.38c-7.64-16.54-21.13-30.13-38.2-38.47-17.08-8.34-36.7-10.93-55.58-7.33-18.88 3.6-35.85 13.17-48.08 27.09-12.23 13.93-18.96 31.37-19.07 49.39l36.91 0.2c0.06-10.1 3.83-19.87 10.68-27.67 6.85-7.8 16.36-13.16 26.93-15.18 10.57-2.01 21.56-0.56 31.13 4.11 9.57 4.67 17.12 12.28 21.4 21.55z"/>
		</clipPath>
	</defs>
	<style>
		.s0 { fill: #ffffff;stroke: #c53d3d;stroke-width: 8 } 
		.s1 { fill: #c53d3d;stroke: #c53d3d;stroke-width: 8 } 
	</style>
	<g id="Clip-Path" clip-path="url(#cp1)">
		<path class="s0" d="m0 78.5c0-20.8 8.8-40.8 24.5-55.5 15.6-14.7 36.9-23 59-23 22.1 0 43.4 8.3 59 23 15.7 14.7 24.5 34.7 24.5 55.5h-36.7c0-11.7-5-22.8-13.7-31.1-8.8-8.2-20.7-12.9-33.1-12.9-12.4 0-24.3 4.7-33.1 12.9-8.7 8.3-13.7 19.4-13.7 31.1z"/>
	</g>
	<g id="Clip-Path" clip-path="url(#cp2)">
		<path class="s1" d="m160.9 49.4c-7.6-16.6-21.1-30.1-38.2-38.5-17-8.3-36.7-10.9-55.6-7.3-18.8 3.6-35.8 13.1-48 27.1-12.3 13.9-19 31.3-19.1 49.4l36.9 0.2c0.1-10.1 3.8-19.9 10.7-27.7 6.8-7.8 16.3-13.2 26.9-15.2 10.6-2 21.6-0.6 31.1 4.1 9.6 4.7 17.2 12.3 21.4 21.6z"/>
	</g>
</svg>