<svg width="126" height="106" viewBox="0 0 126 106" fill="none" xmlns="http://www.w3.org/2000/svg">
<g clip-path="url(#clip0_77_313)">
<path d="M79.38 103.944C79.38 103.944 65.9325 88.5839 50.1672 92.8761C42.9157 95.7899 38.6475 97.8456 36.3068 98.2973C33.989 98.7039 28.5274 99.1332 25.2 96.9195C31.3041 102.408 36.9722 102.747 41.1487 101.979C45.3252 101.189 49.5018 97.8456 50.5803 96.9871C51.6818 96.1513 55.6518 91.4981 63.3621 94.5023C68.9384 97.0773 76.0294 104.645 77.2226 106L79.38 103.944Z" fill="#C53D3D"/>
<path d="M50.5646 91.6433C50.5414 91.6433 44.2525 94.309 44.2525 94.309C40.5626 95.899 38.126 96.9279 36.5711 97.2317C35.8517 97.372 29.4003 98.471 25.5945 95.8521L25.2 96.3431C25.2 96.3666 25.2232 96.39 25.2232 96.39C30.2589 100.996 35.7588 102.773 41.607 101.674C44.415 101.136 47.6638 99.4063 51.2375 96.4834C51.2839 96.46 51.7016 96.0858 51.7016 96.0858C53.1636 94.753 57.0391 91.199 63.8848 93.9347C69.3383 96.5067 76.3234 104.013 77.7623 105.743L77.9944 106L80.64 103.428L80.4311 103.194C80.2919 103.03 66.5304 87.2008 50.5646 91.6433ZM36.7102 97.863C38.3114 97.559 40.7713 96.5068 44.4843 94.8935L50.7732 92.2512C65.6252 88.1125 78.527 102.025 79.7585 103.381C79.4336 103.709 78.3661 104.737 78.018 105.065C76.2311 103.007 69.5244 95.8755 64.1175 93.3503C56.9004 90.4509 52.8159 94.192 51.2612 95.6183L50.8899 95.969C47.3627 98.8217 44.2066 100.529 41.468 101.043C36.4788 102.002 31.7446 100.645 27.3355 97.255C31.2575 98.6346 36.0605 97.9798 36.7102 97.863Z" fill="#C53D3D"/>
<path d="M47.8792 91.4393C47.8792 91.4393 39.1707 93.2813 35.8995 94.2137C32.6282 95.1687 21.5699 95.3507 15.12 85.6633C20.2345 89.8019 26.5007 89.8019 29.0119 89.711C31.546 89.6427 38.0657 90.5978 41.268 91.189C41.199 90.5978 37.9738 89.8928 37.0059 89.3926C36.0384 88.8922 33.3201 88.0964 30.0254 81.0013C28.9196 78.8409 28.7353 77.6357 27.9751 76.9762C29.3574 77.1809 32.0529 80.0462 32.8823 80.9103C33.7117 81.7745 38.7339 87.4822 41.5907 88.9375C44.4473 90.4156 45.852 91.121 47.8792 91.4393Z" fill="#C53D3D"/>
<path d="M26.6492 77.5035C27.0596 77.8332 27.2876 78.3605 27.6295 79.1734L28.6098 81.2828C31.6417 87.6766 34.1723 88.8411 35.3805 89.4123L35.6313 89.5222L37.3867 90.1374C37.569 90.2034 37.8198 90.2912 38.0477 90.3571C34.7878 89.8518 30.0233 89.2147 27.8803 89.2805C22.3407 89.4344 17.7812 88.138 14.3388 85.4134L13.86 85.8309C20.0151 94.8173 30.7984 95.3446 34.7883 94.2021C37.9571 93.3012 46.5289 91.5655 46.62 91.5435L46.5972 90.9503C44.6139 90.6207 43.2232 89.9395 40.4649 88.5553C38.0713 87.3469 34.0133 83.0405 32.4858 81.4146L31.9387 80.8433L31.7335 80.6456C30.0236 78.9098 28.1087 77.1301 26.9005 76.9762L26.6492 77.5035ZM37.5692 89.5661L35.9278 88.9948L35.6542 88.8631C34.5827 88.3797 32.1207 87.2152 29.1798 81.0191C29.1798 80.9971 28.1995 78.9316 28.1995 78.9316C28.0171 78.4703 27.7892 78.2506 27.584 77.921C28.8379 78.6241 30.5477 80.316 31.2771 81.0629L31.4822 81.2606L32.0066 81.832C33.5568 83.4578 37.6832 87.8522 40.1908 89.1046C42.3338 90.1813 43.6788 90.8404 45.1149 91.2359C42.5388 91.7852 37.0449 92.9277 34.6054 93.6308C30.9806 94.6634 21.5881 94.2021 15.547 86.9293C18.8754 88.9947 23.0017 90.0272 27.9032 89.8735C30.2968 89.8075 36.5203 90.6645 39.9401 91.2796L40.3504 91.3675L40.3047 90.95C40.3047 90.8622 40.1224 90.7962 40.054 90.7084L40.0312 90.6864C39.7348 90.3348 39.0509 90.0274 37.5692 89.5661Z" fill="#C53D3D"/>
<path d="M31.5 88.3333C31.5 88.3333 27.1697 87.1538 23.9562 86.7002C20.72 86.2691 9.4386 83.4339 5.03998 70.2548C9.48422 75.4039 10.487 75.7215 13.0851 77.0143C15.7059 78.3073 23.5915 82.7758 26.3263 85.2255L27.124 85.6792C27.124 85.6792 27.3975 85.339 26.1896 84.3182C25.0272 83.2747 21.039 79.6681 20.4236 71.593C19.9222 68.0318 19.1245 64.7881 18.8738 64.3571C20.6743 65.3779 22.7938 69.5062 23.2268 70.6631C23.6599 71.8426 26.577 79.986 26.9645 80.9613C27.3291 81.9139 29.6996 87.0857 31.5 88.3333Z" fill="#C53D3D"/>
<path d="M18.0386 64.7554C18.2496 65.1096 19.0704 68.1869 19.5864 71.7292C19.8913 75.4263 21.1811 80.6289 25.637 84.3262C25.6604 84.3262 25.6604 84.3262 25.6604 84.3482C22.5647 81.9352 15.2009 77.9725 12.5041 76.7104L12.082 76.4891C9.76029 75.4044 8.58761 74.873 4.34287 70.1796L3.78003 70.4673C8.70489 84.4811 22.002 86.5621 23.5029 86.7393C26.7628 87.1378 31.1717 88.3333 31.2185 88.3333L31.5 87.802C29.7881 86.6508 27.396 81.8468 26.9269 80.7176L23.1043 70.6889C22.6822 69.6483 20.4775 65.442 18.4844 64.3571L18.0386 64.7554ZM27.0675 85.6103C27.1379 85.5439 27.1613 85.4553 27.1613 85.3445C27.1613 85.0568 26.9503 84.5919 26.0591 83.8835C21.7908 80.297 20.5245 75.2716 20.2431 71.6628C19.8913 69.2719 19.3753 66.9472 18.9766 65.5968C20.5244 67.058 22.1191 69.9359 22.4944 70.888L26.3406 80.9388C26.5985 81.5809 28.5216 85.5658 30.3272 87.4698C28.8263 87.1156 25.9417 86.4294 23.5732 86.1415C22.2131 85.9645 10.4637 83.9942 5.18711 71.995C8.37653 75.3377 9.68986 76.0685 11.777 77.0426L12.2226 77.2418C15.0133 78.5701 23.0105 82.865 25.7777 85.2118C25.8246 85.2561 26.6689 85.6989 26.6689 85.6989L26.9034 85.8316L27.0675 85.6103Z" fill="#C53D3D"/>
<path d="M18.9 76.9762C18.9 76.9762 13.4984 73.8305 10.5251 71.5222C7.55182 69.1913 -0.800181 63.1265 0.0621052 52.3547C1.35579 55.8397 3.4666 59.0079 5.75872 60.9313C8.05102 62.8776 12.2044 68.9876 13.203 70.4133C14.1789 71.839 14.8598 72.2237 14.8598 72.2237C14.8598 72.2237 15.1776 71.5222 14.0655 70.3002C13.2484 68.9876 11.7732 65.9099 12.5675 59.1888C13.5662 52.9428 13.9293 51.4494 13.7477 50.4762C14.6102 52.6713 15.7448 57.4009 16.1761 64.8011C16.4257 68.9877 16.9024 72.2237 17.4471 73.6494C18.0145 75.0525 18.9 76.9762 18.9 76.9762Z" fill="#C53D3D"/>
<path d="M14.2444 50.6548C14.2679 50.7886 14.2679 50.9447 14.2679 51.1232C14.2679 51.8147 14.0801 52.9076 13.681 55.2276L13.0237 59.1312C12.8594 60.4473 12.7654 61.6519 12.7654 62.7895C12.7654 65.9124 13.3758 68.433 14.5966 70.2843C14.9956 70.6859 15.1834 70.9982 15.3008 71.2658C15.0191 70.9982 14.6669 70.6413 14.2444 70.0613L13.8923 69.5929C12.4838 67.63 8.68073 62.4325 6.49751 60.6704C4.17349 58.7966 2.01376 55.6959 0.675626 52.3278L0.0652618 52.417C-0.803331 62.8118 7.22527 68.7453 10.6526 71.3105L11.0048 71.5558C14.0566 73.8312 19.6437 76.9541 19.6905 76.9762L20.16 76.597L18.681 73.3179C18.1177 71.8903 17.6248 68.6783 17.3665 64.6852C16.8265 55.8519 15.3007 51.5691 14.8546 50.4762L14.2444 50.6548ZM14.3149 55.3167C14.573 53.9115 14.7139 53.0192 14.8078 52.3055C15.4417 54.4022 16.3338 58.328 16.7328 64.73C16.991 68.7675 17.484 72.0466 18.0944 73.5412C18.0944 73.5412 18.7517 74.9911 19.1742 75.9725C17.5074 75.0133 13.7278 72.8051 11.4039 71.0874L11.0517 70.8197C7.88265 68.4553 0.652147 63.1018 0.652147 53.9562V53.6216C2.03717 56.6552 3.91524 59.399 6.07498 61.1388C8.21121 62.834 11.9671 68.0091 13.3758 69.9499L13.7044 70.4182C14.7608 71.8459 15.512 72.2697 15.5354 72.292L15.8642 72.4704L15.9815 72.1358C16.0519 72.0466 16.3571 71.2213 15.1129 69.9052C13.5635 67.5408 13.0706 63.9271 13.6574 59.2204L14.3149 55.3167Z" fill="#C53D3D"/>
<path d="M9.84919 61.8333C9.84919 61.8333 7.99629 58.949 6.32414 57.0561C4.65202 55.2083 -2.73699 46.871 1.0817 32.8095C1.0817 36.0768 1.53362 37.9246 1.87259 39.0966C2.25671 40.2458 5.91725 48.0874 6.27894 50.2056C6.64048 52.3239 7.25059 56.3122 8.10926 56.7629C8.42559 56.5601 8.06406 55.8616 7.95108 55.2081C7.8155 54.5771 6.75346 49.124 9.96211 43.1975C12.8771 37.9923 13.4192 37.4966 13.8487 35.6937C13.9842 39.0964 12.8769 45.834 11.9958 48.6732C11.1371 51.4899 8.80974 58.0476 9.84919 61.8333Z" fill="#C53D3D"/>
<path d="M6.67808 57.1636C8.37839 58.9733 10.3148 61.811 10.3148 61.8333L10.9052 61.5875C9.96058 58.3255 11.8262 52.7395 12.8181 49.7232L13.1487 48.7177C14.0224 46.0365 15.2504 39.2664 15.1088 35.7364L14.4711 35.6694C14.1405 36.8982 13.7863 37.5239 12.5347 39.557L10.433 43.065C8.44929 46.5282 8.00054 49.8575 8.00054 52.181C8.00054 53.544 8.16585 54.4825 8.2603 54.9739C7.83522 53.611 7.45739 51.6224 7.24484 50.55L7.174 50.103C6.91422 48.6285 5.11957 44.6737 3.79708 41.7914L2.5927 39.0433C2.23848 37.9708 1.76616 36.1387 1.76616 32.8989L1.12855 32.8095C-1.4928 41.9478 0.490897 50.5948 6.67808 57.1636ZM7.15039 56.7391C2.8524 52.2033 0.656141 46.6176 0.656141 40.5624C0.656141 38.8644 0.892294 37.144 1.22292 35.4011C1.38822 37.2109 1.69522 38.4174 1.95499 39.2218L3.2066 42.0369C4.43462 44.7182 6.30029 48.8071 6.53647 50.1923L6.60732 50.6614C7.19769 53.8119 7.74085 56.4709 8.63822 56.9176L8.80355 56.9846L8.96885 56.8952C9.15777 56.7834 9.22861 56.5824 9.22861 56.3813C9.22861 56.1356 9.15778 55.8674 9.06332 55.5993L8.92163 55.0631C8.82716 54.6608 8.63824 53.6331 8.63824 52.1583C8.63824 49.924 9.08692 46.7066 11.0234 43.355L13.1015 39.8695C13.6918 38.8863 14.0934 38.2385 14.3767 37.6575C14.1877 41.2771 13.2432 46.3044 12.5347 48.5388L12.2041 49.5443C11.3303 52.1583 9.98419 56.1579 9.98419 59.4424C9.98419 59.7999 10.0787 60.1127 10.1259 60.4479C9.39381 59.4424 8.26029 57.9233 7.15039 56.7391Z" fill="#C53D3D"/>
<path d="M6.75625 45.4286C6.75625 45.4286 5.61428 40.9022 4.21593 37.2856C2.81759 33.6464 0.137383 25.2077 7.08244 16.4048C5.61417 19.9076 6.1968 22.1821 6.1968 22.5688C6.1968 22.9554 7.05913 30.7344 7.08244 32.6677C7.10574 35.1469 6.63963 39.423 6.63963 39.423C6.63963 39.423 6.80277 39.9461 7.15236 39.423C7.36211 39.1045 7.82822 33.5774 11.2309 30.2793C14.3771 27.2087 16.9408 24.8887 17.64 23.6148C17.64 25.8666 16.3116 29.1875 15.2162 30.9843C14.144 32.804 9.69268 38.7633 8.66725 40.7648C7.6651 42.7892 6.75625 45.1783 6.75625 45.4286Z" fill="#C53D3D"/>
<path d="M4.14207 37.3901C5.46499 40.9027 6.56362 45.3835 6.58606 45.4286L7.19147 45.3611C7.21389 45.1133 8.0211 42.8842 9.00768 40.8803C9.56823 39.7094 11.2948 37.165 12.8418 34.9134L15.2858 31.1981C16.4293 29.2392 17.64 25.9518 17.64 23.745L17.0794 23.5874C16.5413 24.6007 14.7924 26.3346 12.5502 28.5411L10.9582 30.1172C8.24509 32.8192 7.41546 37.0523 7.10164 38.6287C7.10164 38.6287 7.03437 38.9889 7.01194 39.1465C7.12407 38.5836 7.4828 32.7067 7.4828 32.7067L6.85497 24.8032L6.63075 22.4166C6.5859 22.1464 6.54107 21.7186 6.54107 21.1557C6.54107 20.1199 6.72044 18.6112 7.46038 16.72L6.94466 16.4048C2.21358 22.5968 1.27204 29.6445 4.14207 37.3901ZM4.72505 37.165C3.67123 34.3278 3.13309 31.5808 3.13309 28.9463C3.13309 25.2536 4.23176 21.7861 6.29469 18.5212C6.04803 19.557 5.93593 20.4801 5.93593 21.1556C5.93593 21.7411 5.98077 22.1913 6.0032 22.4841C6.04803 22.7092 6.22743 24.8707 6.22743 24.8707L6.87766 32.7065L6.45165 39.3491C6.49649 39.5518 6.6086 39.8894 6.92251 39.912C7.14672 39.9571 7.34853 39.8219 7.50548 39.5517L7.70729 38.7411C8.0212 37.21 8.80597 33.1345 11.3845 30.5676L12.9989 28.969C14.8375 27.1451 16.0931 25.8391 16.9004 24.7808C16.6088 26.8975 15.5775 29.4868 14.7477 30.9053L12.3262 34.5754C10.7791 36.8272 9.03012 39.3941 8.44718 40.5875C7.86419 41.7809 7.28122 43.2219 6.92247 44.2351C6.49645 42.704 5.68914 39.7094 4.72505 37.165Z" fill="#C53D3D"/>
<path d="M8.96317 30.2857C8.96317 30.2857 9.44833 29.0439 9.00728 24.0313C8.54417 19.0188 8.34569 12.1776 15.9318 7.57144C14.0354 10.8227 13.7266 11.3874 13.1533 14.0516C12.5799 16.6934 11.9404 20.9383 10.9039 23.3315C10.4849 24.5056 10.2203 25.4314 10.4187 25.5441C10.5951 25.6571 10.6834 25.4539 10.8157 25.0474C10.9921 24.641 12.5358 21.051 15.6674 18.7705C18.7987 16.49 21.6215 14.2096 22.68 11.9517C22.217 16.1288 20.6732 17.6189 19.1296 19.7187C17.4535 21.9992 11.4332 26.7634 10.4187 28.3212C9.38228 29.8566 8.96317 30.2857 8.96317 30.2857Z" fill="#C53D3D"/>
<path d="M9.02879 22.7046C9.48902 27.411 9.00578 28.6703 9.00578 28.6703L9.51205 29.0238L11.0768 27.0352C11.56 26.3502 13.2629 24.9139 15.0347 23.3894C17.1056 21.6438 19.2458 19.8321 20.1662 18.6389L20.8105 17.8434C22.1913 16.1421 23.5028 14.5291 23.94 10.9054L23.3418 10.7286C22.2372 12.9161 19.2228 15.1698 16.1162 17.291C13.746 18.9039 12.2502 21.1577 11.4909 22.5054C11.5369 22.3508 11.56 22.3067 11.629 22.1078C12.4574 20.3401 13.0096 17.5561 13.539 15.1256L13.9762 12.9823C14.5744 10.4634 14.8506 9.95529 16.8525 6.72932L16.4153 6.30951C7.90105 11.1706 8.63762 18.6831 9.02879 22.7046ZM9.85718 26.2619C9.85718 25.3559 9.81117 24.1848 9.65008 22.6603C9.55803 21.7102 9.466 20.5611 9.466 19.3018C9.466 15.7223 10.5705 11.2811 15.449 7.83419C14.2293 9.82278 13.8611 10.6846 13.3779 12.8498L12.8947 14.9931C12.4115 17.4015 11.8363 20.1412 11.0309 21.887C10.5937 23.0138 10.4326 23.6326 10.4326 23.9861C10.4326 24.2292 10.5246 24.3397 10.6627 24.4281L10.7777 24.4943L11.0539 24.4722C11.307 24.3839 11.422 24.1186 11.5371 23.7652C11.6982 23.4117 13.3319 19.9426 16.4843 17.7773C19.0847 16.0096 21.5469 14.1316 23.0196 12.2755C22.4903 14.6839 21.4778 16.0316 20.3043 17.49L19.6599 18.2634C18.7625 19.4122 16.5766 21.2905 14.6205 22.9477C12.7336 24.5607 11.0769 25.9527 10.5475 26.7039C10.5475 26.7039 10.1793 27.19 9.81116 27.654C9.83417 27.2783 9.85718 26.8584 9.85718 26.2619Z" fill="#C53D3D"/>
<path d="M15.12 17.6667C15.12 17.6667 16.1441 12.1357 18.1924 8.86416C20.2406 5.59258 24.4967 2.69775 28.98 1.2619C27.4097 2.62701 26.4537 3.85089 25.9076 4.83933C25.3614 5.80433 21.9704 11.2882 20.4227 13.0299C18.8296 14.7716 16.2806 16.3489 15.12 17.6667Z" fill="#C53D3D"/>
<path d="M18.3787 7.48388C16.2222 10.6782 15.168 15.9256 15.12 16.1309L15.6951 16.4048L18.0912 14.4655L21.2304 11.91C22.9316 10.176 26.5259 4.83711 27.0769 3.9244C27.7478 2.80644 28.8022 1.66568 30.24 0.524787L29.9285 0C24.9445 1.46021 20.5352 4.33527 18.3787 7.48388ZM18.9539 7.82611C20.775 5.13386 24.4172 2.69263 28.5865 1.1639C27.7478 1.98528 27.0051 2.80663 26.502 3.60514C25.9508 4.49497 22.4046 9.78815 20.7511 11.4994C20.7511 11.4994 16.7015 14.762 15.9587 15.3551C16.366 13.7124 17.3725 10.1534 18.9539 7.82611Z" fill="#C53D3D"/>
<path d="M47.8806 102.822C47.8806 102.822 60.9879 87.6934 76.9051 91.4593C84.2766 94.0933 88.5842 95.9653 90.9569 96.3138C93.3065 96.6838 98.766 96.9668 102.06 94.7246C96.0706 100.167 90.3811 100.646 86.1883 99.9927C81.9728 99.3396 77.7111 96.2268 76.6056 95.4213C75.4998 94.6159 71.3534 90.2623 63.7287 93.3316C58.154 95.9439 51.2432 103.389 50.0916 104.738L47.8806 102.822Z" fill="#C53D3D"/>
<path d="M46.8021 103.36L46.62 103.585L49.2834 106L49.4883 105.729C50.8769 104.037 57.5698 96.6119 62.8513 93.9942C69.4758 91.196 73.3685 94.5359 74.8255 95.7997L75.2352 96.1381C78.8548 98.8689 82.0645 100.494 84.8648 100.945C90.6014 101.848 95.9741 99.9973 100.777 95.4386C100.8 95.416 100.8 95.416 100.8 95.3936L100.413 94.9196C96.7252 97.5373 90.3737 96.6347 89.6681 96.5218C88.1429 96.2736 85.7754 95.3484 82.1785 93.9267L75.8499 91.4895C60.0739 87.5628 46.9395 103.202 46.8021 103.36ZM75.6679 92.0762L81.951 94.5134C85.5933 95.9351 87.9838 96.8829 89.5772 97.1311C90.1691 97.2213 94.6538 97.8307 98.3872 96.5669C94.2441 99.7714 89.7595 101.08 84.9561 100.313C82.2927 99.8843 79.1512 98.3273 75.6682 95.6644C75.6227 95.6418 75.2356 95.3258 75.2356 95.3258C73.6876 93.9944 69.5899 90.4739 62.5785 93.4528C57.3653 96.0029 50.9229 103.044 49.2155 105.097C48.874 104.804 47.8041 103.811 47.4854 103.54C48.6463 102.186 60.9623 88.4426 75.6679 92.0762Z" fill="#C53D3D"/>
<path d="M79.38 91.8667C79.38 91.8667 88.1713 93.4483 91.4565 94.3069C94.7647 95.1657 105.893 95.0752 112.14 85.2914C107.097 89.5392 100.781 89.6976 98.2591 89.675C95.7373 89.6524 89.1901 90.7596 86.0206 91.4374C86.067 90.8274 89.2826 90.0591 90.2543 89.5395C91.2028 89.0197 93.9097 88.1611 97.033 81.0207C98.1202 78.8515 98.2591 77.6313 99.0225 76.9762C97.6345 77.2248 94.9971 80.1397 94.1874 80.9981C93.3545 81.9019 88.4499 87.6866 85.6273 89.2004C82.8047 90.7595 81.3927 91.46 79.38 91.8667Z" fill="#C53D3D"/>
<path d="M94.1105 79.7135L93.8813 79.9708L93.2628 80.6724C91.7737 82.4264 87.8335 87.0803 85.4967 88.39C82.6561 90.0271 81.3044 90.7052 79.38 91.1027V91.7342C79.4488 91.7575 88.1083 93.3946 91.3384 94.2599C95.3705 95.3825 106.206 94.5405 112.14 84.7883L111.682 84.3906C108.268 87.3841 103.71 88.8809 98.1657 88.8341C95.9893 88.8107 91.2472 89.6058 87.9484 90.2606C88.1775 90.1671 88.4295 90.0736 88.6356 90.0033L90.3538 89.3019L90.6287 89.1615C91.7284 88.6002 94.3169 87.2438 97.2264 80.3447L98.1656 78.0763C98.4864 77.211 98.7155 76.6264 99.082 76.2756L98.83 75.7143C97.6388 75.9248 95.7827 77.8428 94.1105 79.7135ZM85.7947 88.9746C88.2229 87.5715 92.0945 83.0346 93.744 81.0934L94.3396 80.4153L94.5916 80.1346C95.3017 79.3395 96.9513 77.5386 98.1655 76.7436C97.9821 77.0944 97.7531 77.3516 97.5697 77.8427L96.6535 80.0646C93.8357 86.7765 91.3844 88.0394 90.3305 88.6006L90.0556 88.7409L88.4291 89.3957C86.94 89.9336 86.2756 90.2844 85.9779 90.6586L85.9549 90.682C85.8863 90.7755 85.7259 90.8691 85.7029 90.9627L85.6801 91.407L86.0924 91.29C89.0248 90.6352 95.5768 89.4659 98.1424 89.4892C103.068 89.5127 107.191 88.32 110.49 86.0046C104.58 93.9327 95.1643 94.6578 91.4989 93.652C89.0477 92.9737 83.4807 91.8746 80.8692 91.3836C82.2667 90.9158 83.5955 90.2142 85.7947 88.9746Z" fill="#C53D3D"/>
<path d="M95.76 87.0714C95.76 87.0714 100.1 85.7742 103.373 85.2822C106.669 84.7677 118.089 81.6813 122.22 68.5749C117.833 73.7639 116.835 74.0993 114.212 75.4636C111.59 76.7831 103.652 81.3681 100.913 83.8508L100.1 84.3205C100.1 84.3205 99.8684 84.0073 101.029 82.9784C102.213 81.9273 106.182 78.2593 106.623 70.2747C107.041 66.7632 107.783 63.5649 108.039 63.0952C106.228 64.1687 104.162 68.3064 103.745 69.4472C103.327 70.6101 100.541 78.7066 100.193 79.6683C99.822 80.63 97.5471 85.7742 95.76 87.0714Z" fill="#C53D3D"/>
<path d="M103.496 69.8132L100.015 80.3272C99.5595 81.5466 97.3755 86.5619 95.76 87.7813L96.033 88.3333C96.0785 88.3333 100.333 86.999 103.496 86.4928C104.929 86.2628 117.783 83.7781 122.22 69.0999L121.674 68.8008C117.624 73.8163 116.578 74.3685 114.303 75.5878L113.893 75.7949C111.345 77.1753 104.406 81.4084 101.38 84.0083C105.589 80.0281 106.726 74.6216 106.931 70.7795C107.341 67.0755 108.046 63.9006 108.273 63.5324L107.818 63.0952C105.907 64.2915 103.882 68.7319 103.496 69.8132ZM100.606 80.5343L104.087 70.0202C104.428 69.008 105.907 65.9941 107.363 64.4297C107.022 65.8332 106.59 68.2028 106.294 70.7105C105.998 76.163 104.201 80.4883 100.925 83.5943C100.128 84.3305 99.9007 84.8135 99.9007 85.1126C99.9007 85.2277 99.9235 85.3428 99.9918 85.4118L100.151 85.6187L101.175 84.9976C103.837 82.49 111.504 77.8195 114.189 76.3701L114.575 76.1632C116.6 75.0818 117.852 74.2996 120.878 70.7106C116.077 83.3182 104.724 85.6418 103.382 85.8719C101.107 86.24 98.3309 86.9993 96.8747 87.4364C98.5811 85.4349 100.31 81.3626 100.606 80.5343Z" fill="#C53D3D"/>
<path d="M107.1 75.7139C107.1 75.7139 112.57 72.424 115.585 70.0355C118.577 67.6695 127.039 61.4275 125.894 50.7239C124.632 54.2167 122.551 57.4165 120.237 59.3995C117.923 61.3825 113.809 67.5793 112.827 69.0214C111.822 70.4636 111.144 70.8692 111.144 70.8692C111.144 70.8692 110.793 70.1706 111.915 68.9088C112.71 67.6245 114.183 64.4923 113.178 57.8447C112.009 51.6254 111.612 50.1606 111.752 49.2143C110.934 51.4 109.882 56.1096 109.625 63.5008C109.484 67.6922 109.04 70.9145 108.502 72.3342C107.965 73.7763 107.1 75.7139 107.1 75.7139Z" fill="#C53D3D"/>
<path d="M109.5 63.4082C109.364 67.3842 108.957 70.6051 108.436 72.0047L107.1 75.3367L107.553 75.7143C107.598 75.6699 112.897 72.4268 115.795 70.0945L116.135 69.8279C119.373 67.2068 126.982 61.1205 125.895 50.7692L125.283 50.7026C124.083 54.1234 122.113 57.211 119.894 59.1435C117.833 60.9427 114.301 66.2071 112.965 68.2062L112.648 68.6949C112.24 69.2725 111.923 69.6279 111.674 69.8944C111.765 69.6501 111.923 69.3392 112.263 68.9393C113.35 67.1622 113.893 64.7854 113.893 61.8978C113.893 60.6095 113.803 59.2323 113.576 57.7884C113.576 57.7662 112.829 53.8346 112.829 53.8346C112.376 51.4802 112.172 50.4139 112.172 49.7474C112.172 49.6141 112.172 49.4808 112.195 49.3698L111.606 49.2143C111.176 50.3249 109.817 54.634 109.5 63.4082ZM109.025 72.2266C109.568 70.7606 109.998 67.4732 110.134 63.4303C110.361 57.055 111.131 53.1458 111.697 51.0353C111.787 51.724 111.946 52.6125 112.218 53.9454L112.965 57.8771C113.169 59.321 113.282 60.6759 113.282 61.9199C113.282 64.6741 112.761 66.9399 111.765 68.5836C111.085 69.3611 110.927 69.9831 110.927 70.3608C110.927 70.6051 110.995 70.7606 111.017 70.7828L111.153 71.116L111.448 70.9382C111.493 70.916 112.195 70.4718 113.169 69.028L113.508 68.5392C114.822 66.5623 118.309 61.3423 120.324 59.6097C122.339 57.8326 124.083 55.0559 125.329 52.0128C125.351 52.2571 125.374 52.5236 125.374 52.7681C125.374 61.6087 118.694 66.9843 115.727 69.361L115.388 69.6276C113.191 71.4046 109.614 73.6926 108.029 74.6921C108.414 73.737 109.025 72.2266 109.025 72.2266Z" fill="#C53D3D"/>
<path d="M115.439 60.5708C115.439 60.5708 117.212 57.6616 118.828 55.7597C120.444 53.8799 127.604 45.3988 123.474 31.5476C123.542 34.7923 123.16 36.6497 122.823 37.8133C122.487 38.9546 119.053 46.8315 118.738 48.9351C118.402 51.0611 117.885 55.0218 117.032 55.4919C116.741 55.3128 117.1 54.5967 117.19 53.9701C117.302 53.3211 118.222 47.861 114.9 42.0875C111.893 37.0077 111.331 36.493 110.883 34.7252C110.815 38.1043 112.095 44.7729 112.993 47.5477C113.935 50.3448 116.404 56.789 115.439 60.5708Z" fill="#C53D3D"/>
<path d="M124.053 31.6363V32.4574C124.053 34.5655 123.843 36.2962 123.397 37.7607L122.225 40.6231C121.007 43.4856 119.342 47.413 119.108 48.8333L119.014 49.4325C118.85 50.5197 118.545 52.3616 118.171 53.6484C118.241 53.2047 118.358 52.4502 118.358 51.3406C118.358 49.0328 117.889 45.5493 115.686 41.9322L113.506 38.4929C112.241 36.5181 111.866 35.8968 111.537 34.7208L110.881 34.7873C110.834 38.2488 112.217 44.95 113.131 47.6128L113.506 48.6335C114.561 51.5846 116.553 57.0877 115.686 60.3496L116.272 60.5714C116.295 60.5492 118.123 57.6867 119.788 55.845C125.764 49.1882 127.498 40.5566 124.686 31.5476L124.053 31.6363ZM117.819 55.6447C118.71 55.1787 119.178 52.5826 119.647 49.5203L119.741 48.9433C119.975 47.5676 121.686 43.5293 122.811 40.8443L124.007 37.9374C124.241 37.1607 124.475 35.807 124.593 33.9878C125.061 35.9626 125.343 37.9153 125.343 39.8236C125.343 45.5929 123.304 50.9849 119.296 55.4449C118.241 56.6209 117.163 58.1299 116.46 59.1506C116.483 58.9066 116.553 58.7068 116.553 58.4628C116.553 55.1787 115.077 51.0736 114.116 48.4333L113.741 47.4125C112.991 45.1936 111.959 40.2675 111.678 36.695C111.983 37.2498 112.358 37.8711 112.967 38.8031L115.147 42.2425C117.257 45.7485 117.702 49.0989 117.702 51.3179C117.702 52.5605 117.561 53.4702 117.514 53.8032C117.491 53.8032 117.35 54.3801 117.35 54.3801C117.303 54.6464 117.21 54.8904 117.21 55.1123C117.21 55.3343 117.28 55.5339 117.491 55.6449L117.655 55.7337L117.819 55.6447Z" fill="#C53D3D"/>
<path d="M118.397 44.1657C118.397 44.1657 119.439 39.5938 120.735 35.9317C122.032 32.2698 124.486 23.7854 117.402 15.1429C118.93 18.6001 118.42 20.8975 118.444 21.2842C118.444 21.6708 117.749 29.4727 117.795 31.406C117.818 33.8853 118.397 38.1388 118.397 38.1388C118.397 38.1388 118.235 38.662 117.888 38.1616C117.656 37.8204 117.078 32.3159 113.628 29.1089C110.41 26.129 107.818 23.8773 107.1 22.6035C107.146 24.8781 108.558 28.1306 109.67 29.9277C110.781 31.7018 115.341 37.5702 116.406 39.5492C117.448 41.528 118.397 43.8927 118.397 44.1657Z" fill="#C53D3D"/>
<path d="M117.008 15.4808C117.897 17.4863 118.052 19.0862 118.052 20.1227C118.052 20.5735 118.03 20.9114 118.008 21.1368L117.83 23.3902L117.364 31.4575C117.364 31.4575 117.719 35.5587 117.875 37.3389C117.497 35.6036 116.608 31.5701 113.876 28.9788C113.876 28.9562 112.187 27.3337 112.187 27.3337C109.966 25.2154 108.211 23.5479 107.678 22.579L107.1 22.7367C107.144 24.945 108.433 28.1901 109.61 30.1504L112.143 33.846C113.72 36.0318 115.475 38.5331 116.053 39.6599C117.097 41.6654 117.919 43.8739 117.941 44.1216L118.563 44.1667C118.563 44.1216 119.563 39.6147 120.785 36.0319C123.473 28.2803 122.385 21.2496 117.519 15.1429L117.008 15.4808ZM118.097 38.6682C118.408 38.6231 118.519 38.2852 118.541 38.2175C118.541 37.9697 117.963 31.4573 117.963 31.4573L118.452 23.4577L118.586 21.4297C118.608 21.0916 118.652 20.6636 118.652 20.1452C118.652 19.4017 118.497 18.365 118.208 17.2382C120.429 20.5733 121.607 24.1787 121.607 28.0547C121.607 30.5559 121.14 33.1473 120.207 35.8289C119.319 38.4202 118.563 41.4399 118.208 42.9721C117.83 41.9807 117.23 40.561 116.608 39.3668C115.986 38.195 114.209 35.6937 112.654 33.4854L110.144 29.8124C109.166 28.2124 108.166 25.7562 107.833 23.7508C108.655 24.7649 109.921 26.0268 111.765 27.8068L113.476 29.4068C116.075 31.9081 116.919 35.8291 117.275 37.4966L117.497 38.3079C117.675 38.5783 117.875 38.6906 118.097 38.6682Z" fill="#C53D3D"/>
<path d="M117.18 29.0237C117.18 29.0237 116.636 27.7946 116.991 22.7419C117.345 17.6665 117.392 10.7705 109.171 6.30951C111.273 9.56406 111.604 10.1332 112.289 12.7961C112.974 15.4361 113.778 19.6923 114.935 22.0819C115.408 23.2653 115.739 24.1758 115.526 24.2896C115.313 24.4263 115.219 24.1986 115.053 23.8117C114.888 23.402 113.116 19.8288 109.738 17.6211C106.312 15.3908 103.241 13.1604 102.06 10.9298C102.627 15.1176 104.328 16.5742 106.029 18.6453C107.872 20.8985 114.439 25.5414 115.573 27.0665C116.731 28.6141 117.18 29.0237 117.18 29.0237Z" fill="#C53D3D"/>
<path d="M108.929 6.755C110.969 9.96165 111.263 10.4739 111.898 12.9902L112.374 15.0389C112.941 17.5108 113.576 20.3167 114.437 22.1426C114.482 22.2541 114.573 22.4767 114.641 22.6548C113.916 21.3633 112.397 19.0251 109.903 17.3772C106.798 15.3285 103.76 13.1016 102.649 10.9638L102.06 11.142C102.559 14.7717 103.874 16.3528 105.302 18.0454L105.936 18.8247C106.888 20.0272 109.065 21.8086 111.127 23.5457C112.918 25.0155 114.596 26.3961 115.094 27.0865L116.681 29.0238L117.18 28.6676C117.157 28.6676 116.681 27.4204 117.021 22.6772C117.293 18.5796 117.815 10.9859 109.359 6.30951L108.929 6.755ZM115.457 24.4141C115.593 24.3473 115.661 24.2137 115.661 24.0133C115.661 23.6569 115.457 23.0334 115.026 21.8977C114.188 20.1385 113.53 17.2212 112.986 14.9052L112.488 12.8342C111.943 10.6519 111.558 9.80563 110.334 7.80146C115.321 11.1862 116.5 15.5956 116.5 19.8933C116.5 20.8286 116.454 21.7416 116.409 22.6322C116.318 23.8793 116.296 24.8813 116.296 25.683C116.296 26.5738 116.318 27.1751 116.386 27.665C116.001 27.1973 115.616 26.7297 115.616 26.7297C115.072 25.9947 113.439 24.6363 111.535 23.0776C109.563 21.452 107.342 19.6037 106.412 18.468L105.778 17.6664C104.599 16.2412 103.579 14.9274 102.989 12.5222C104.372 14.2369 106.616 15.9516 109.563 17.889C112.918 20.1382 114.55 23.7903 114.573 23.8125C114.709 24.1689 114.8 24.4138 115.049 24.4806L115.185 24.5474L115.457 24.4141Z" fill="#C53D3D"/>
<path d="M109.62 15.1429C109.62 15.1429 108.509 9.96196 106.421 6.91543C104.378 3.86909 100.158 1.24524 95.76 0C97.3148 1.24522 98.2699 2.37921 98.8252 3.29097C99.3805 4.20265 102.823 9.29462 104.378 10.8958C105.955 12.519 108.487 13.9198 109.62 15.1429Z" fill="#C53D3D"/>
<path d="M95.76 0.560117C97.5361 1.93692 98.4475 3.15038 98.9149 3.92037C99.4757 4.85379 103.121 10.2442 104.827 11.9711L107.959 14.5146L110.342 16.4048L110.88 16.1247C110.833 15.8914 109.665 10.5942 107.468 7.37393C105.295 4.20033 100.925 1.37669 96.0638 0L95.76 0.560117ZM108.333 14.0013L105.271 11.5045C103.636 9.84769 100.013 4.4572 99.4756 3.59378C98.9849 2.80038 98.237 1.98361 97.3724 1.14365C101.486 2.61378 105.084 5.01737 106.931 7.74759C108.52 10.0811 109.595 13.6748 110.015 15.3549C109.314 14.7715 108.333 14.0013 108.333 14.0013Z" fill="#C53D3D"/>
<path d="M61.74 76.9762C79.8328 76.9762 94.5 62.2869 94.5 44.1667C94.5 26.0465 79.8328 11.3571 61.74 11.3571C43.6471 11.3571 28.98 26.0465 28.98 44.1667C28.98 62.2869 43.6471 76.9762 61.74 76.9762Z" stroke="#C53D3D" stroke-width="4"/>
</g>
<defs>
<clipPath id="clip0_77_313">
<rect width="126" height="106" fill="white"/>
</clipPath>
</defs>
</svg>
