<svg width="19" height="19" viewBox="0 0 19 19" fill="none" xmlns="http://www.w3.org/2000/svg">
<g clip-path="url(#clip0_1_1764)">
<path d="M9.5 0C4.2465 0 0 4.2465 0 9.5C0 14.7535 4.2465 19 9.5 19C14.7535 19 19 14.7535 19 9.5C19 4.2465 14.7535 0 9.5 0ZM13.9717 12.6284C14.3431 12.9998 14.3431 13.6002 13.9717 13.9717C13.7864 14.1569 13.5432 14.25 13.3 14.25C13.0568 14.25 12.8136 14.1569 12.6284 13.9717L9.5 10.8433L6.37165 13.9717C6.1864 14.1569 5.9432 14.25 5.7 14.25C5.4568 14.25 5.2136 14.1569 5.02835 13.9717C4.6569 13.6002 4.6569 12.9998 5.02835 12.6284L8.1567 9.5L5.02835 6.37165C4.6569 6.0002 4.6569 5.3998 5.02835 5.02835C5.3998 4.6569 6.0002 4.6569 6.37165 5.02835L9.5 8.1567L12.6284 5.02835C12.9998 4.6569 13.6002 4.6569 13.9717 5.02835C14.3431 5.3998 14.3431 6.0002 13.9717 6.37165L10.8433 9.5L13.9717 12.6284Z" fill="#F26E71"/>
</g>
<defs>
<clipPath id="clip0_1_1764">
<rect width="19" height="19" fill="white"/>
</clipPath>
</defs>
</svg>
