<svg version="1.2" xmlns="http://www.w3.org/2000/svg" viewBox="0 0 168 78" width="152" height="71">
	<title>circle</title>
	<defs>
		<clipPath clipPathUnits="userSpaceOnUse" id="cp1">
			<path d="m0 78.5c0-20.82 8.8-40.79 24.46-55.51 15.66-14.72 36.89-22.99 59.04-22.99 22.15 0 43.38 8.27 59.04 22.99 15.66 14.72 24.46 34.69 24.46 55.51h-36.73c0-11.66-4.93-22.85-13.7-31.09-8.77-8.25-20.67-12.88-33.07-12.88-12.4 0-24.3 4.63-33.07 12.88-8.77 8.24-13.7 19.43-13.7 31.09z"/>
		</clipPath>
		<clipPath clipPathUnits="userSpaceOnUse" id="cp2">
			<path d="m24.57 22.99c-7.79 7.29-13.97 15.95-18.18 25.47-4.22 9.52-6.39 19.73-6.39 30.04h36.91c0-5.77 1.21-11.49 3.57-16.83 2.36-5.33 5.83-10.18 10.19-14.26z"/>
		</clipPath>
	</defs>
	<style>
		.s0 { fill: #ffffff;stroke: #c53d3d;stroke-width: 8 } 
		.s1 { fill: #c53d3d;stroke: #c53d3d;stroke-width: 8 } 
	</style>
	<g id="Clip-Path" clip-path="url(#cp1)">
		<path class="s0" d="m0 78.5c0-20.8 8.8-40.8 24.5-55.5 15.6-14.7 36.9-23 59-23 22.1 0 43.4 8.3 59 23 15.7 14.7 24.5 34.7 24.5 55.5h-36.7c0-11.7-5-22.8-13.7-31.1-8.8-8.2-20.7-12.9-33.1-12.9-12.4 0-24.3 4.7-33.1 12.9-8.7 8.3-13.7 19.4-13.7 31.1z"/>
	</g>
	<g id="Clip-Path" clip-path="url(#cp2)">
		<path class="s1" d="m24.6 23c-7.8 7.3-14 15.9-18.2 25.5-4.2 9.5-6.4 19.7-6.4 30h36.9c0-5.8 1.2-11.5 3.6-16.8 2.3-5.4 5.8-10.2 10.2-14.3z"/>
	</g>
</svg>