<svg version="1.2" xmlns="http://www.w3.org/2000/svg" viewBox="0 0 171 83" width="171" height="83">
	<title>circle</title>
	<defs>
		<clipPath clipPathUnits="userSpaceOnUse" id="cp1">
			<path d="m4 82.5c0-20.82 8.8-40.79 24.46-55.51 15.66-14.72 36.89-22.99 59.04-22.99 22.15 0 43.38 8.27 59.04 22.99 15.66 14.72 24.46 34.69 24.46 55.51h-36.73c0-11.66-4.93-22.85-13.7-31.09-8.77-8.25-20.67-12.88-33.07-12.88-12.4 0-24.3 4.63-33.07 12.88-8.77 8.24-13.7 19.43-13.7 31.09z"/>
		</clipPath>
	</defs>
	<style>
		.s0 { fill: #ffffff;stroke: #3bb974;stroke-width: 8 } 
		.s1 { fill: #3bb974 } 
		.s2 { fill: none;stroke: #3bb974;stroke-width: 4 } 
	</style>
	<g id="Clip-Path" clip-path="url(#cp1)">
		<path class="s0" d="m4 82.5c0-20.8 8.8-40.8 24.5-55.5 15.6-14.7 36.9-23 59-23 22.1 0 43.4 8.3 59 23 15.7 14.7 24.5 34.7 24.5 55.5h-36.7c0-11.7-5-22.8-13.7-31.1-8.8-8.2-20.7-12.9-33.1-12.9-12.4 0-24.3 4.7-33.1 12.9-8.7 8.3-13.7 19.4-13.7 31.1z"/>
	</g>
	<path class="s1" d="m61 8c-16.9 5.1-31.6 15.1-42 28.5-10.4 13.4-16 29.6-16 46.2h36.9c0-9.3 3.1-18.4 9-25.9 5.8-7.5 14-13.1 23.5-16l-5.7-16.4z"/>
	<path class="s1" d="m61 8c-16.9 5.1-31.6 15.1-42 28.5-10.4 13.4-16 29.6-16 46.2h36.9c0-9.3 3.1-18.4 9-25.9 5.8-7.5 14-13.1 23.5-16l-5.7-16.4z"/>
	<path class="s1" d="m61 8c-16.9 5.1-31.6 15.1-42 28.5-10.4 13.4-16 29.6-16 46.2h36.9c0-9.3 3.1-18.4 9-25.9 5.8-7.5 14-13.1 23.5-16l-5.7-16.4z"/>
	<path class="s1" d="m61 8c-16.9 5.1-31.6 15.1-42 28.5-10.4 13.4-16 29.6-16 46.2h36.9c0-9.3 3.1-18.4 9-25.9 5.8-7.5 14-13.1 23.5-16l-5.7-16.4z"/>
	<path class="s2" d="m61 8c-16.9 5.1-31.6 15.1-42 28.5-10.4 13.4-16 29.6-16 46.2h36.9c0-9.3 3.1-18.4 9-25.9 5.8-7.5 14-13.1 23.5-16l-5.7-16.4z"/>
	<path class="s1" d="m129.3 15.7c-14.9-9.2-32.1-13.7-49.1-12.6-16.9 1-32.8 7.5-45.2 18.4l21.5 26.5c7-6.1 18.7-8.5 28.2-9.1 9.5-0.6 21.9 1.4 30.3 6.6l5.8-14.7z"/>
	<path class="s1" d="m129.3 15.7c-14.9-9.2-32.1-13.7-49.1-12.6-16.9 1-32.8 7.5-45.2 18.4l21.5 26.5c7-6.1 18.7-8.5 28.2-9.1 9.5-0.6 21.9 1.4 30.3 6.6l5.8-14.7z"/>
	<path class="s1" d="m129.3 15.7c-14.9-9.2-32.1-13.7-49.1-12.6-16.9 1-32.8 7.5-45.2 18.4l21.5 26.5c7-6.1 18.7-8.5 28.2-9.1 9.5-0.6 21.9 1.4 30.3 6.6l5.8-14.7z"/>
	<path class="s1" d="m129.3 15.7c-14.9-9.2-32.1-13.7-49.1-12.6-16.9 1-32.8 7.5-45.2 18.4l21.5 26.5c7-6.1 18.7-8.5 28.2-9.1 9.5-0.6 21.9 1.4 30.3 6.6l5.8-14.7z"/>
	<path class="s2" d="m129.3 15.7c-14.9-9.2-32.1-13.7-49.1-12.6-16.9 1-32.8 7.5-45.2 18.4l21.5 26.5c7-6.1 18.7-8.5 28.2-9.1 9.5-0.6 21.9 1.4 30.3 6.6l5.8-14.7z"/>
	<path class="s1" d="m162.3 51.4c-7.4-16-19.3-29.1-34-37.6-14.8-8.4-31.5-11.8-48-9.5l3.4 34c9.2-1.3 20.3 3.1 28.6 7.9 8.2 4.7 17.5 13.2 21.6 22.2l13.2-8.8z"/>
	<path class="s1" d="m162.3 51.4c-7.4-16-19.3-29.1-34-37.6-14.8-8.4-31.5-11.8-48-9.5l3.4 34c9.2-1.3 20.3 3.1 28.6 7.9 8.2 4.7 17.5 13.2 21.6 22.2l13.2-8.8z"/>
	<path class="s1" d="m162.3 51.4c-7.4-16-19.3-29.1-34-37.6-14.8-8.4-31.5-11.8-48-9.5l3.4 34c9.2-1.3 20.3 3.1 28.6 7.9 8.2 4.7 17.5 13.2 21.6 22.2l13.2-8.8z"/>
	<path class="s1" d="m162.3 51.4c-7.4-16-19.3-29.1-34-37.6-14.8-8.4-31.5-11.8-48-9.5l3.4 34c9.2-1.3 20.3 3.1 28.6 7.9 8.2 4.7 17.5 13.2 21.6 22.2l13.2-8.8z"/>
	<path class="s2" d="m162.3 51.4c-7.4-16-19.3-29.1-34-37.6-14.8-8.4-31.5-11.8-48-9.5l3.4 34c9.2-1.3 20.3 3.1 28.6 7.9 8.2 4.7 17.5 13.2 21.6 22.2l13.2-8.8z"/>
</svg>