<svg width="27" height="21" viewBox="0 0 27 21" fill="none" xmlns="http://www.w3.org/2000/svg">
<g clip-path="url(#clip0_218_18)">
<path d="M26.1511 4.23313C25.909 2.92054 24.7557 1.96467 23.4173 1.66625C21.4145 1.24892 17.7078 0.9505 13.6973 0.9505C9.68923 0.9505 5.92321 1.24892 3.91798 1.66625C2.58195 1.96467 1.42628 2.85993 1.18423 4.23313C0.939806 5.72524 0.697754 7.81418 0.697754 10.5C0.697754 13.1858 0.939806 15.2747 1.24356 16.7668C1.48798 18.0794 2.64128 19.0353 3.97731 19.3337C6.10356 19.751 9.74856 20.0494 13.759 20.0494C17.7695 20.0494 21.4145 19.751 23.5407 19.3337C24.8767 19.0353 26.03 18.14 26.2745 16.7668C26.5165 15.2747 26.8203 13.1251 26.882 10.5C26.7586 7.81418 26.4548 5.72524 26.1511 4.23313ZM10.4178 14.6779V6.32208L17.8288 10.5L10.4178 14.6779Z" fill="#C53D3D"/>
</g>
<defs>
<clipPath id="clip0_218_18">
<rect width="27" height="21" fill="white"/>
</clipPath>
</defs>
</svg>
