<svg width="27" height="22" viewBox="0 0 27 22" fill="none" xmlns="http://www.w3.org/2000/svg">
<g clip-path="url(#clip0_217_10)">
<path d="M13.5001 0.323547C9.46357 0.323547 4.22447 1.34153 4.22447 1.34153L4.21129 1.3567C2.37286 1.65264 0.964355 3.24272 0.964355 5.1765V11V11.0019V16.8235V16.8254C0.968058 18.7333 2.34839 20.3557 4.2207 20.6528L4.22447 20.6585C4.22447 20.6585 9.46357 21.6784 13.5001 21.6784C17.5366 21.6784 22.7757 20.6585 22.7757 20.6585L22.7775 20.6566C24.652 20.3601 26.0338 18.7353 26.0358 16.8254V16.8235V11.0019V11V5.1765C26.033 3.26795 24.6524 1.6445 22.7794 1.34723L22.7757 1.34154C22.7757 1.34154 17.5366 0.323547 13.5001 0.323547ZM10.6072 6.5338L18.3215 11L10.6072 15.4662V6.5338Z" fill="white"/>
</g>
<defs>
<clipPath id="clip0_217_10">
<rect width="27" height="22" fill="white"/>
</clipPath>
</defs>
</svg>
