<svg width="27" height="27" viewBox="0 0 27 27" fill="none" xmlns="http://www.w3.org/2000/svg">
<g clip-path="url(#clip0_218_14)">
<path d="M13.4999 0.159973C20.8677 0.159973 26.8399 6.13223 26.8399 13.5C26.8399 20.8677 20.8677 26.84 13.4999 26.84C6.13217 26.84 0.159912 20.8677 0.159912 13.5C0.159912 6.13223 6.13217 0.159973 13.4999 0.159973ZM18.1016 18.9375C18.347 18.1846 19.4965 10.6818 19.6386 9.20333C19.6816 8.75557 19.54 8.45803 19.2628 8.32521C18.9276 8.16397 18.4311 8.24459 17.8551 8.45223C17.0652 8.73701 6.96621 13.025 6.38273 13.2732C5.82941 13.5081 5.30625 13.7645 5.30625 14.1357C5.30625 14.3967 5.46111 14.5434 5.88799 14.6959C6.33227 14.8543 7.45109 15.1936 8.11171 15.3757C8.74797 15.5514 9.47239 15.3989 9.87839 15.1466C10.3088 14.8792 15.2753 11.5558 15.632 11.2647C15.9881 10.9735 16.2723 11.3464 15.9812 11.6382C15.69 11.9293 12.2808 15.2382 11.8313 15.6964C11.2855 16.2527 11.6729 16.8292 12.0389 17.06C12.4571 17.3233 15.4644 19.3406 15.9174 19.6642C16.3703 19.9879 16.8297 20.1346 17.2502 20.1346C17.6707 20.1346 17.8923 19.5807 18.1016 18.9375Z" fill="#C53D3D"/>
</g>
<defs>
<clipPath id="clip0_218_14">
<rect width="27" height="27" fill="white"/>
</clipPath>
</defs>
</svg>
